<?xml version="1.0" encoding="UTF-8"?>
<svg version="1.1" xmlns="http://www.w3.org/2000/svg" width="2627" height="739">
<path d="M0 0 C62.04 0 124.08 0 188 0 C192.49948788 8.99897576 192.49948788 8.99897576 193.88085938 12.44506836 C194.35534515 13.62127495 194.35534515 13.62127495 194.8394165 14.82124329 C195.33656158 16.06795052 195.33656158 16.06795052 195.84375 17.33984375 C196.20531189 18.23821457 196.56687378 19.13658539 196.93939209 20.06217957 C197.72033316 22.00338629 198.49980658 23.94518398 199.2779541 25.88751221 C201.39188993 31.16348301 203.51704061 36.4349384 205.640625 41.70703125 C206.0810614 42.80130432 206.5214978 43.89557739 206.97528076 45.02301025 C211.69403998 56.73981483 216.46964055 68.43322473 221.25 80.125 C222.93525324 84.24855194 224.62011422 88.37226398 226.3046875 92.49609375 C226.70958405 93.48727203 227.11448059 94.47845032 227.53164673 95.49966431 C231.16166111 104.38931992 234.77194873 113.28688819 238.375 122.1875 C244.56068533 137.46757971 250.77745209 152.73489731 257 168 C263.47034684 183.87330773 269.93268973 199.74971705 276.36572266 215.63818359 C282.22225885 230.10091119 288.11019436 244.55079407 294 259 C300.47030671 274.87332415 306.93268969 290.74971696 313.36572266 306.63818359 C319.22225888 321.10091127 325.11022539 335.55078135 331 350 C338.82672795 369.20140866 346.63467134 388.41025347 354.41838074 407.62913513 C357.75218363 415.85932047 361.09465987 424.08598208 364.4375 432.3125 C364.72384308 433.01719421 365.01018616 433.72188843 365.3052063 434.44793701 C366.86994668 438.29870226 368.43487728 442.14939014 370 446 C372.93708975 443.06291025 373.99865859 439.36418282 375.49194336 435.55688477 C375.84354271 434.67265587 376.19514206 433.78842697 376.55739594 432.87740326 C377.7397156 429.90063169 378.91466655 426.92100401 380.08984375 423.94140625 C380.93178839 421.81819332 381.77425352 419.69518673 382.61720276 417.57237244 C384.43621211 412.9891195 386.25221262 408.40469036 388.06591797 403.81933594 C392.46290972 392.70414128 396.87610024 381.59537254 401.28882217 370.48641586 C402.30741197 367.92210778 403.325757 365.35770271 404.34389877 362.79321671 C414.54646938 337.09610371 424.8466506 311.43868615 435.1745491 285.79169846 C450.47929833 247.78303324 465.69122483 209.73855238 480.82678986 171.66221237 C491.53765998 144.71745476 502.27440463 117.78343205 513.0859375 90.87890625 C513.3353091 90.25833957 513.58468069 89.63777289 513.841609 88.99840117 C518.92165648 76.35729 524.00651085 63.71811463 529.09519005 51.08047581 C530.85645969 46.70619061 532.61712269 42.33166134 534.37779617 37.95713615 C535.57608993 34.98097876 536.77558098 32.0053061 537.97518921 29.02967834 C538.70617228 27.21461671 539.43694464 25.3994702 540.16748047 23.58422852 C540.6779445 22.31615026 540.6779445 22.31615026 541.19872093 21.02245426 C543.57178194 15.1101816 545.86965225 9.17391993 548.103302 3.2073822 C549 1 549 1 550 0 C612.04 0 674.08 0 738 0 C738 214.83 738 429.66 738 651 C685.2 651 632.4 651 578 651 C577.67 524.61 577.34 398.22 577 268 C561.77143927 308.86621219 561.77143927 308.86621219 546.55859375 349.73828125 C546.05144081 351.10198601 546.05144081 351.10198601 545.53404236 352.49324036 C539.44583917 368.86678093 533.36607899 385.24346097 527.28445435 401.6194458 C520.65252499 419.47715978 514.01948699 437.33445347 507.375 455.1875 C507.05940125 456.03549164 506.74380249 456.88348328 506.41864014 457.75717163 C503.98073805 464.30737634 501.54227359 470.85737164 499.10375977 477.40734863 C496.94388818 483.20895969 494.78427932 489.01066848 492.625 494.8125 C492.31020691 495.65831635 491.99541382 496.50413269 491.67108154 497.37557983 C484.20251897 517.44449388 476.7489126 537.5189643 469.29434204 557.59307861 C461.86532095 577.59834223 454.43294226 597.60233958 446.98242188 617.59960938 C446.6953537 618.37047882 446.40828552 619.14134827 446.11251831 619.93557739 C445.56148664 621.41524196 445.01016818 622.89479976 444.45852661 624.37423706 C442.97830455 628.34942884 441.51257255 632.32953492 440.06005859 636.31494141 C439.73873459 637.19446976 439.41741058 638.07399811 439.08634949 638.98017883 C438.46506152 640.68241902 437.84608092 642.38550357 437.22969055 644.08952332 C435.11137674 649.88862326 435.11137674 649.88862326 434 651 C432.32975331 651.09614133 430.65541724 651.12187722 428.98240662 651.12025452 C427.89560608 651.12162918 426.80880554 651.12300385 425.68907166 651.12442017 C424.48642166 651.12082489 423.28377167 651.11722961 422.04467773 651.11352539 C420.78632111 651.11367142 419.52796448 651.11381744 418.23147583 651.1139679 C414.77088747 651.11425585 411.31033348 651.10835949 407.84975314 651.10139394 C404.23691909 651.09516003 400.62408433 651.09455657 397.01124573 651.09336853 C390.16536492 651.09025532 383.3195 651.08204208 376.4736262 651.07201904 C368.68173411 651.06085757 360.88984127 651.05534737 353.09794319 651.05032361 C337.06528614 651.03985946 321.0326451 651.02226023 305 651 C296.78994496 629.65294493 288.70675339 608.26295328 280.76809692 586.8135376 C278.20692504 579.89357215 275.63972174 572.97584281 273.07308388 566.05790329 C272.23091361 563.78788223 271.38891299 561.51779829 270.54692078 559.24771118 C266.5720474 548.53264509 262.58137182 537.8236521 258.5625 527.125 C258.28848358 526.39531006 258.01446716 525.66562012 257.73214722 524.91381836 C256.22808616 520.90906786 254.72311041 516.90466168 253.21777344 512.90039062 C248.20315107 499.5602952 243.19421639 486.21806438 238.1875 472.875 C237.89844284 472.10470711 237.60938568 471.33441422 237.31156921 470.54077911 C228.16046401 446.15323889 219.0628258 421.74629722 210.00543213 397.32381058 C200.84302172 372.61824212 191.62313761 347.93479974 182.3527832 323.26953125 C175.18719287 304.19694956 168.09420845 285.09979198 161 266 C160.67 393.05 160.34 520.1 160 651 C107.2 651 54.4 651 0 651 C0 436.17 0 221.34 0 0 Z " fill="#322B2A" transform="translate(933,58)"/>
<path d="M0 0 C52.8 0 105.6 0 160 0 C160.33 92.73 160.66 185.46 161 281 C166.42098705 274.37434916 171.6892335 267.85126983 176.6875 260.9375 C181.35472963 254.53978174 186.10982925 248.22890906 191 242 C195.77774037 235.91093231 200.4331322 229.74876047 205 223.5 C210.24553939 216.32356011 215.62782436 209.27091958 221.10595703 202.27075195 C224.95296191 197.35393087 228.73181199 192.393803 232.4609375 187.38671875 C235.93849924 182.73099062 239.47467015 178.11957867 243 173.5 C247.18549577 168.01389132 251.3699066 162.52797116 255.5 157 C260.33288223 150.53137302 265.23912756 144.11891324 270.13671875 137.69921875 C273.60882625 133.14574194 277.07270754 128.58729914 280.5 124 C284.56782354 118.55549431 288.68950372 113.15281111 292.8125 107.75 C297.56718006 101.5188204 302.30754233 95.27818475 307 89 C311.56785156 82.88870202 316.18239258 76.81425068 320.8125 70.75 C326.13781856 63.77484202 331.43073038 56.77696193 336.6875 49.75 C342.80904727 41.56912672 348.99565169 33.44067532 355.21240234 25.33203125 C358.72857707 20.74496474 362.2409314 16.15500475 365.75 11.5625 C366.80658813 10.18396851 366.80658813 10.18396851 367.88452148 8.77758789 C368.53622314 7.92414795 369.1879248 7.07070801 369.859375 6.19140625 C370.44170898 5.43029541 371.02404297 4.66918457 371.62402344 3.88500977 C373.04577644 2.0468875 373.04577644 2.0468875 374 0 C436.37 0 498.74 0 563 0 C561.08951101 3.18414831 559.51626408 5.75440206 557.21484375 8.53125 C556.68955078 9.16998047 556.16425781 9.80871094 555.62304688 10.46679688 C555.06681641 11.13775391 554.51058594 11.80871094 553.9375 12.5 C549.8775931 17.44308309 545.87462528 22.41018026 542 27.5 C538.25631826 32.41054358 534.40899051 37.22020319 530.5 42 C526.57387237 46.80176754 522.69817104 51.62990957 518.9375 56.5625 C514.87657221 61.88507526 510.72364171 67.12475401 506.53100586 72.34399414 C503.16057615 76.54207853 499.81906085 80.76120661 496.5 85 C492.69571461 89.8569574 488.86002133 94.68722392 485 99.5 C481.12236504 104.3359692 477.26442154 109.1862833 473.4375 114.0625 C472.98616699 114.63758301 472.53483398 115.21266602 472.06982422 115.80517578 C469.81823665 118.67633313 467.57010429 121.5501622 465.32421875 124.42578125 C459.88175961 131.3848618 454.35461077 138.26652826 448.76611328 145.10888672 C444.6059375 150.21741958 440.58813392 155.4168633 436.59375 160.65625 C433.09761824 165.20122129 429.44618338 169.62032798 425.81640625 174.05859375 C422.47393504 178.15607022 419.20594499 182.29479942 416 186.5 C412.25631826 191.41054358 408.40899051 196.22020319 404.5 201 C400.57387237 205.80176754 396.69817104 210.62990957 392.9375 215.5625 C388.87657221 220.88507526 384.72364171 226.12475401 380.53100586 231.34399414 C377.16057615 235.54207853 373.81906085 239.76120661 370.5 244 C366.69571461 248.8569574 362.86002133 253.68722392 359 258.5 C355.12236504 263.3359692 351.26442154 268.1862833 347.4375 273.0625 C346.98616699 273.63758301 346.53483398 274.21266602 346.06982422 274.80517578 C343.81823665 277.67633313 341.57010429 280.5501622 339.32421875 283.42578125 C338.42474308 284.57572731 337.52500246 285.72546618 336.625 286.875 C336.17995117 287.44379883 335.73490234 288.01259766 335.27636719 288.59863281 C332.20028257 292.51424586 329.06274895 296.37517583 325.90258789 300.22314453 C320.93053638 306.28020031 316.08266094 312.28877654 312 319 C312.60585937 319.71542969 313.21171875 320.43085938 313.8359375 321.16796875 C319.20008327 327.54717596 324.38327038 334.02583972 329.4375 340.65234375 C332.0727884 344.10558513 334.75024411 347.52461375 337.4375 350.9375 C338.12380493 351.80930908 338.12380493 351.80930908 338.82397461 352.69873047 C339.75210036 353.87725631 340.68040476 355.05564149 341.60888672 356.23388672 C343.90874245 359.15371058 346.20410522 362.07706142 348.5 365 C348.95439453 365.57814453 349.40878906 366.15628906 349.87695312 366.75195312 C352.15832249 369.65463159 354.43814165 372.55850275 356.71484375 375.46484375 C360.91000342 380.81695098 365.1182858 386.15642325 369.38085938 391.45507812 C374.15236466 397.38671411 378.83538133 403.37336132 383.4375 409.4375 C388.2793136 415.81563738 393.25771931 422.06223421 398.33129883 428.25708008 C402.50418544 433.36135245 406.54313799 438.55247965 410.54296875 443.79296875 C413.1440258 447.19854123 415.78691993 450.57039565 418.4375 453.9375 C418.89527832 454.51902832 419.35305664 455.10055664 419.82470703 455.69970703 C420.75259621 456.8779014 421.68065654 458.05596099 422.60888672 459.23388672 C424.90874237 462.15371048 427.20415945 465.07701893 429.5 468 C430.4166451 469.16668361 431.33331177 470.33335027 432.25 471.5 C470.75 520.5 470.75 520.5 472.12475586 522.24975586 C473.04215009 523.4173041 473.95963067 524.58478449 474.87719727 525.75219727 C477.15844245 528.6548279 479.43821214 531.55859274 481.71484375 534.46484375 C485.91000342 539.81695098 490.1182858 545.15642325 494.38085938 550.45507812 C499.15236466 556.38671411 503.83538133 562.37336132 508.4375 568.4375 C513.2793136 574.81563738 518.25771931 581.06223421 523.33129883 587.25708008 C527.50418544 592.36135245 531.54313799 597.55247965 535.54296875 602.79296875 C538.1440258 606.19854123 540.78691993 609.57039565 543.4375 612.9375 C543.89527832 613.51902832 544.35305664 614.10055664 544.82470703 614.69970703 C545.75259621 615.8779014 546.68065654 617.05596099 547.60888672 618.23388672 C548.9917996 619.98958903 550.37317971 621.74648415 551.75390625 623.50390625 C552.20797852 624.08172852 552.66205078 624.65955078 553.12988281 625.25488281 C554.0376496 626.41110466 554.944562 627.56799787 555.85058594 628.72558594 C558.2572858 631.79763695 560.68288877 634.85213641 563.13671875 637.88671875 C563.6471875 638.52287109 564.15765625 639.15902344 564.68359375 639.81445312 C565.66597477 641.03796403 566.65403269 642.25694431 567.6484375 643.47070312 C571 647.66261341 571 647.66261341 571 651 C545.8612618 651.25707782 520.72272086 651.45099439 495.58293247 651.56993389 C483.90974015 651.62663035 472.23736502 651.70391173 460.56469727 651.82983398 C450.38952251 651.93954918 440.21493959 652.01045784 430.03918976 652.03497344 C424.65190762 652.04930254 419.26631843 652.08291958 413.87957954 652.16303062 C408.80570776 652.23787515 403.73422055 652.2606939 398.65984917 652.24418449 C396.80099382 652.24720305 394.94205622 652.26898567 393.0836792 652.31126022 C379.07698248 652.61417273 379.07698248 652.61417273 373.98411369 648.65613747 C371.67413383 645.87482847 369.83461788 643.10952635 368 640 C366.66438931 638.19445829 365.31224173 636.40092848 363.9375 634.625 C363.20015625 633.63242187 362.4628125 632.63984375 361.703125 631.6171875 C358.23909029 626.96356567 354.70835937 622.36066881 351.1875 617.75 C346.36923285 611.43629294 341.56771085 605.1113443 336.8125 598.75 C331.18887512 591.22947628 325.48548821 583.77159606 319.77441406 576.31738281 C310.52862548 564.24239311 301.33279647 552.13195984 292.22094727 539.95556641 C288.08986408 534.43979012 283.91561214 528.96172797 279.703125 523.5078125 C270.83278331 512.01452032 262.06420211 500.44316972 253.375 488.8125 C248.0169038 481.64239564 242.56685312 474.55186142 237.05371094 467.50048828 C232.8622869 462.13163146 228.75149042 456.7084073 224.67895508 451.24902344 C220.48966488 445.63756677 216.24960749 440.06587974 212 434.5 C207.24413668 428.26966768 202.50540699 422.02790253 197.8125 415.75 C192.20764342 408.25458652 186.52357625 400.8213979 180.83154297 393.39208984 C177.32057503 388.80658413 173.81573802 384.21641265 170.3125 379.625 C169.61672852 378.71468018 168.92095703 377.80436035 168.20410156 376.86645508 C167.23102051 375.59064575 167.23102051 375.59064575 166.23828125 374.2890625 C165.3726355 373.15525146 165.3726355 373.15525146 164.48950195 371.99853516 C163.27519919 370.36924776 162.12716235 368.69074352 161 367 C160.505 507.58 160.505 507.58 160 651 C107.2 651 54.4 651 0 651 C0 436.17 0 221.34 0 0 Z " fill="#322B2A" transform="translate(2056,58)"/>
<path d="M0 0 C4.47962747 4.47962747 4.47962747 4.47962747 6.1484375 7.6015625 C6.51453125 8.25640625 6.880625 8.91125 7.2578125 9.5859375 C8.00410997 10.94806086 8.74108533 12.31533234 9.46875 13.6875 C11.88732616 17.98466623 11.88732616 17.98466623 16.2265625 20.2734375 C17.14179687 20.51320313 18.05703125 20.75296875 19 21 C19.33 21.99 19.66 22.98 20 24 C27.92 24 35.84 24 44 24 C44 24.66 44 25.32 44 26 C41.37646482 27.00399524 38.75132205 28.00334445 36.125 29 C35.00544922 29.42925781 35.00544922 29.42925781 33.86328125 29.8671875 C28.2265625 32 28.2265625 32 26 32 C37.87353664 52.07825073 49.85630721 72.08400231 62 92 C64.79385615 96.58200265 67.58607812 101.16499204 70.375 105.75 C70.72025726 106.3174292 71.06551453 106.8848584 71.42123413 107.46948242 C77.75310104 117.8824347 83.97337229 128.36005561 90.17913818 138.84851074 C94.72506517 146.52888119 99.29905928 154.18103604 104.08911133 161.71240234 C108.58834486 168.83991987 112.83608431 176.119934 117.125 183.375 C122.99611692 193.30615131 128.92179653 203.19373936 135 213 C140.9881531 222.66428088 146.83648278 232.40278629 152.625 242.1875 C159.7341017 254.202933 166.92641232 266.16228514 174.21044922 278.07275391 C177.54279505 283.52361701 180.86769751 288.97899138 184.1875 294.4375 C184.53774231 295.01312683 184.88798462 295.58875366 185.24884033 296.18182373 C189.5356549 303.23161754 193.78491199 310.30245262 197.98828125 317.40234375 C198.40708054 318.10953049 198.82587982 318.81671722 199.25737 319.54533386 C201.28174141 322.96569196 203.30226317 326.38824874 205.31713867 329.81420898 C207.52214957 333.55658983 209.75334389 337.28249229 212 341 C212.39638672 341.66004028 212.79277344 342.32008057 213.20117188 343.00012207 C214.39124769 344.96981655 215.59891914 346.92753253 216.8125 348.8828125 C217.17351807 349.48390839 217.53453613 350.08500427 217.90649414 350.70431519 C219.96958342 353.99518761 219.96958342 353.99518761 223.26171875 355.88232422 C224.12216797 355.94057373 224.12216797 355.94057373 225 356 C224.814375 356.53625 224.62875 357.0725 224.4375 357.625 C223.82121336 360.0764277 223.82121336 360.0764277 224.65673828 362.77954102 C225.09090962 366.85290812 224.13457875 368.4105122 222.0546875 371.90234375 C221.39645996 373.02793701 220.73823242 374.15353027 220.06005859 375.31323242 C219.33182693 376.52139468 218.60347101 377.72948204 217.875 378.9375 C217.13312547 380.19596039 216.39307386 381.45549706 215.65478516 382.71606445 C214.15673095 385.27109747 212.6515095 387.82167529 211.140625 390.36914062 C208.14477719 395.43345491 205.25691348 400.55773011 202.375 405.6875 C201.85405762 406.61038818 201.33311523 407.53327637 200.79638672 408.48413086 C196.25258744 416.53408631 191.73942802 424.60118266 187.2277832 432.66918945 C183.35984466 439.58284169 179.46812459 446.48258056 175.5625 453.375 C170.21046655 462.8245692 164.92596418 472.31058523 159.65869141 481.80761719 C153.71133642 492.52904984 147.7220494 503.2266634 141.72509766 513.92041016 C140.00512979 516.99084246 138.28909386 520.06343958 136.57421875 523.13671875 C129.74961023 535.3605919 122.85463384 547.54206725 115.89550781 559.68969727 C111.69294907 567.02697431 107.52261826 574.38154162 103.375 581.75 C97.32137446 592.48805605 91.12653435 603.14041258 84.890625 613.7734375 C83.25724442 616.56098369 81.62714653 619.3504151 79.99887085 622.14094543 C45.55244654 681.17133019 45.55244654 681.17133019 31 703 C31.81267334 703.23187012 32.62534668 703.46374023 33.46264648 703.70263672 C36.47051815 704.56486023 39.476255 705.43406755 42.48071289 706.30810547 C43.78263192 706.68528027 45.0853692 707.05964232 46.38891602 707.43115234 C48.2600934 707.96496103 50.12815193 708.50966469 51.99609375 709.0546875 C53.12200928 709.37937012 54.2479248 709.70405273 55.40795898 710.03857422 C58 711 58 711 59 713 C57.95021973 713.01458252 56.90043945 713.02916504 55.81884766 713.04418945 C51.93096526 713.10207993 48.04366774 713.17931206 44.15625 713.26245117 C42.47242715 713.29574435 40.78849152 713.32376256 39.10449219 713.34643555 C36.68635914 713.37990205 34.26926376 713.43221036 31.8515625 713.48828125 C31.0963028 713.49467117 30.34104309 713.5010611 29.56289673 713.50764465 C27.21354099 713.53980318 27.21354099 713.53980318 24 714 C23.34 714.99 22.68 715.98 22 717 C19.375 717.1875 19.375 717.1875 17 717 C16.77441406 717.64324219 16.54882812 718.28648437 16.31640625 718.94921875 C14.5217056 723.10845082 12.24448539 726.9196661 9.9375 730.8125 C9.47794922 731.60076172 9.01839844 732.38902344 8.54492188 733.20117188 C8.10599609 733.94560547 7.66707031 734.69003906 7.21484375 735.45703125 C6.81386475 736.13741455 6.41288574 736.81779785 5.99975586 737.51879883 C5.66983643 738.00759521 5.33991699 738.4963916 5 739 C4.67 739 4.34 739 4 739 C4.11794705 737.39529935 4.24490466 735.79126148 4.375 734.1875 C4.47941406 732.84751953 4.47941406 732.84751953 4.5859375 731.48046875 C4.95507374 728.37763486 5.45948437 725.35391898 6.02587891 722.2824707 C6.20776764 721.292939 6.38965637 720.30340729 6.57705688 719.28388977 C6.71662811 718.53020615 6.85619934 717.77652252 7 717 C6.17318065 716.99576806 5.34636129 716.99153612 4.49448681 716.98717594 C-192.18809625 715.97911287 -192.18809625 715.97911287 -279.67072678 715.09375095 C-287.11216871 715.01850659 -294.55363589 714.946235 -301.99511719 714.875 C-312.3524464 714.77558393 -322.70970296 714.67029802 -333.06692505 714.56030273 C-336.84463968 714.52025444 -340.62236543 714.482057 -344.40011597 714.44555664 C-348.69509837 714.40385339 -352.99000693 714.35760628 -357.28490067 714.30761719 C-358.83536712 714.29029183 -360.38585208 714.2745375 -361.93635178 714.26049805 C-364.04073266 714.24116846 -366.14496785 714.21605447 -368.24926758 714.18945312 C-369.41686111 714.17692505 -370.58445465 714.16439697 -371.78742981 714.15148926 C-379.98947656 713.76472044 -379.98947656 713.76472044 -383.3125 711.25 C-385 709 -385 709 -385.46386719 706.62646484 C-386.0206802 703.89868964 -386.86377069 702.11690382 -388.265625 699.7265625 C-388.73645508 698.91437256 -389.20728516 698.10218262 -389.69238281 697.26538086 C-390.20639648 696.39405518 -390.72041016 695.52272949 -391.25 694.625 C-392.35482454 692.72303825 -393.45896847 690.82068101 -394.5625 688.91796875 C-395.41908203 687.447229 -395.41908203 687.447229 -396.29296875 685.94677734 C-398.98512604 681.29941772 -401.61631112 676.61815881 -404.25 671.9375 C-409.44992852 662.71697573 -414.69881041 653.52493702 -419.96026611 644.33944702 C-424.73283965 636.00446281 -429.45034721 627.64038555 -434.125 619.25 C-438.6959036 611.04596361 -443.36594778 602.90877221 -448.125 594.8125 C-453.11627201 586.3177922 -457.92030126 577.74270008 -462.60424805 569.07519531 C-466.9292678 561.08457585 -471.42276167 553.1980747 -475.94921875 545.3203125 C-479.07754193 539.87512203 -482.16589488 534.40782293 -485.25 528.9375 C-489.77719362 520.91158494 -494.33679734 512.90472959 -498.9161377 504.90847778 C-504.90598033 494.44916162 -510.83774191 483.95963138 -516.71069336 473.43408203 C-521.42400545 464.99903263 -526.21162283 456.60775879 -531.01748657 448.22528076 C-535.79601866 439.88889095 -540.51392848 431.5207982 -545.1875 423.125 C-551.59079186 411.62972382 -558.2430608 400.29044115 -565 389 C-565.41362793 389.39380859 -565.82725586 389.78761719 -566.25341797 390.19335938 C-568.12245887 391.96739988 -569.99859299 393.73375387 -571.875 395.5 C-572.52597656 396.12003906 -573.17695312 396.74007813 -573.84765625 397.37890625 C-574.47285156 397.96542969 -575.09804688 398.55195313 -575.7421875 399.15625 C-576.3182373 399.70087891 -576.89428711 400.24550781 -577.48779297 400.80664062 C-579 402 -579 402 -581 402 C-579.82293494 397.91744275 -578.23304927 394.54901596 -575.97875977 390.95043945 C-572.11190859 384.77425447 -570.15128488 380.39594609 -571 373 C-570.67 372.01 -570.34 371.02 -570 370 C-571.27408797 367.03734496 -571.27408797 367.03734496 -573.18359375 363.80078125 C-573.68512718 362.90820869 -573.68512718 362.90820869 -574.1967926 361.99760437 C-575.2675909 360.09705011 -576.35228319 358.20485132 -577.4375 356.3125 C-578.16564227 355.0259158 -578.8928676 353.73881219 -579.61914062 352.45117188 C-581.40215729 349.2946835 -583.1977206 346.14553829 -585 343 C-582 343 -582 343 -580.09887695 344.56054688 C-579.05413208 345.62885742 -579.05413208 345.62885742 -577.98828125 346.71875 C-577.23095703 347.48574219 -576.47363281 348.25273437 -575.69335938 349.04296875 C-574.90767578 349.85378906 -574.12199219 350.66460937 -573.3125 351.5 C-572.51521484 352.31082031 -571.71792969 353.12164062 -570.89648438 353.95703125 C-568.9241252 355.96482203 -566.95908508 357.9792687 -565 360 C-562.16237155 356.63306308 -559.98301464 353.34321846 -558.00390625 349.4140625 C-557.17584473 347.78791016 -557.17584473 347.78791016 -556.33105469 346.12890625 C-555.74743164 344.97261719 -555.16380859 343.81632812 -554.5625 342.625 C-549.98025514 333.63668037 -545.26457303 324.75731775 -540.25 316 C-536.37250706 309.22727372 -532.59299159 302.42808851 -529 295.5 C-524.83586297 287.4783872 -520.42847974 279.61164473 -515.95703125 271.7578125 C-512.23362176 265.20914616 -508.58926742 258.62305297 -505 252 C-499.88770675 242.57589099 -494.63786713 233.23530032 -489.34765625 223.91015625 C-485.89757977 217.82720661 -482.47706421 211.72793907 -479.0625 205.625 C-478.48274414 204.58915771 -477.90298828 203.55331543 -477.30566406 202.48608398 C-474.34355499 197.19244225 -471.38397892 191.89739082 -468.42578125 186.6015625 C-462.51331848 176.02256134 -456.56847185 165.46467962 -450.53857422 154.95214844 C-446.64798168 148.1593772 -442.81718049 141.33425328 -439 134.5 C-434.70527742 126.81075871 -430.38219497 119.1397364 -426 111.5 C-421.03608555 102.84441749 -416.14868734 94.14765102 -411.28125 85.4375 C-407.37383461 78.44709093 -403.4453442 71.46906466 -399.5 64.5 C-397.90416104 61.67676369 -396.30873226 58.8532959 -394.71337891 56.02978516 C-393.16926567 53.29931419 -391.62247735 50.57037221 -390.07528687 47.84164429 C-388.44251093 44.9589135 -386.81551347 42.07292225 -385.1875 39.1875 C-384.57003906 38.10082031 -383.95257813 37.01414063 -383.31640625 35.89453125 C-382.46949219 34.39019531 -382.46949219 34.39019531 -381.60546875 32.85546875 C-381.10168701 31.96496826 -380.59790527 31.07446777 -380.07885742 30.15698242 C-378.85088831 28.10383509 -378.85088831 28.10383509 -379 26 C-378.02149805 24.97895449 -377.02019573 23.9793879 -376 23 C-375.67 22.34 -375.34 21.68 -375 21 C-373.35 21 -371.7 21 -370 21 C-369.67 20.01 -369.34 19.02 -369 18 C-368.01 18.99 -368.01 18.99 -367 20 C-364.85449008 20.30173657 -364.85449008 20.30173657 -362.33786774 20.24888897 C-360.85372053 20.25578716 -360.85372053 20.25578716 -359.33959055 20.26282471 C-358.2441724 20.25768115 -357.14875424 20.25253759 -356.0201416 20.24723816 C-354.28279888 20.25085978 -354.28279888 20.25085978 -352.51035833 20.25455457 C-349.28282158 20.25923247 -346.05543881 20.25487941 -342.82791328 20.24679029 C-339.34728714 20.240227 -335.86667527 20.24516035 -332.38604736 20.24867249 C-325.54215172 20.25373249 -318.6983042 20.24804112 -311.85441452 20.23882218 C-303.81739405 20.22839395 -295.7803838 20.22850998 -287.74335784 20.22899476 C-273.31196815 20.22949681 -258.88060046 20.2203172 -244.44921875 20.20581055 C-230.61197506 20.19190909 -216.77475079 20.18463159 -202.9375 20.18530273 C-202.09571459 20.18534269 -201.25392918 20.18538265 -200.38663512 20.18542381 C-199.5459946 20.18546417 -198.70535408 20.18550452 -197.8392396 20.1855461 C-181.94046662 20.18625025 -166.04170159 20.18024195 -150.14293125 20.17139288 C-145.39098784 20.1688646 -140.63904585 20.16746226 -135.8871018 20.16706113 C-89.58398274 20.16303456 -43.29738581 19.73011988 3 19 C2.01 12.73 1.02 6.46 0 0 Z M-353 43 C-352.03903732 45.57392729 -351.07707441 48.14747326 -350.11453247 50.72080994 C-349.84371511 51.44650602 -349.57289774 52.1722021 -349.29387379 52.91988897 C-347.51563457 57.67094274 -345.65419577 62.35664029 -343.6171875 67.00390625 C-343.32459045 67.67564377 -343.03199341 68.34738129 -342.73052979 69.03947449 C-341.7822317 71.21538411 -340.82867059 73.38894046 -339.875 75.5625 C-338.47120906 78.77614906 -337.07088697 81.99129912 -335.671875 85.20703125 C-335.30422028 86.05159882 -334.93656555 86.89616638 -334.55776978 87.7663269 C-331.51828962 94.76625593 -328.54169092 101.79186297 -325.578125 108.82421875 C-325.12402252 109.89986588 -324.66992004 110.975513 -324.20205688 112.08375549 C-320.56089988 120.70883592 -320.56089988 120.70883592 -318.7855835 124.94924927 C-317.53211085 127.94259802 -316.2707197 130.93249716 -315.0078125 133.921875 C-314.63142639 134.82737595 -314.25504028 135.73287689 -313.86724854 136.66581726 C-313.51805359 137.48862686 -313.16885864 138.31143646 -312.80908203 139.15917969 C-312.50648468 139.88030945 -312.20388733 140.60143921 -311.89212036 141.34442139 C-311.10356257 143.18790314 -311.10356257 143.18790314 -309 144 C-307.19390566 143.55934326 -307.19390566 143.55934326 -305.17944336 142.71850586 C-304.38025986 142.40815903 -303.58107635 142.09781219 -302.75767517 141.77806091 C-301.8772908 141.42719925 -300.99690643 141.07633759 -300.08984375 140.71484375 C-299.16091812 140.35185684 -298.23199249 139.98886993 -297.2749176 139.61488342 C-294.15970024 138.3959701 -291.04873655 137.16653477 -287.9375 135.9375 C-285.73472402 135.07397894 -283.53159183 134.21136604 -281.328125 133.34960938 C-277.84167761 131.98595745 -274.35547722 130.62170422 -270.87033081 129.25473022 C-258.96110287 124.58430851 -247.02660418 119.98027083 -235.08914185 115.38259888 C-229.05852074 113.0595004 -223.02919917 110.73303594 -217 108.40625 C-215.81700821 107.94972549 -214.63401642 107.49320099 -213.41517639 107.02284241 C-201.77174793 102.5282017 -190.13526655 98.01571862 -178.5 93.5 C-159.64635 86.1827823 -140.7817031 78.89436934 -121.91287231 71.61639404 C-97.2633766 62.10817435 -72.6290166 52.56112513 -48 43 C-48 42.67 -48 42.34 -48 42 C-80.50089805 41.97703518 -113.0017937 41.95941276 -145.50269805 41.94893467 C-149.36654481 41.94768442 -153.23039155 41.94639006 -157.09423828 41.94506836 C-158.24775148 41.94467489 -158.24775148 41.94467489 -159.42456797 41.94427348 C-171.76854401 41.93995847 -184.11251524 41.93209467 -196.45648846 41.9228472 C-209.18516032 41.91339327 -221.91382971 41.90791998 -234.64250493 41.90591151 C-241.76558836 41.90467945 -248.88866181 41.90176956 -256.01174164 41.89426994 C-288.35521279 41.86117276 -320.66890823 42.04798186 -353 43 Z M-2.93408203 47.39501953 C-3.73319 47.70529083 -4.53229797 48.01556213 -5.35562134 48.3352356 C-6.23084442 48.68093597 -7.1060675 49.02663635 -8.0078125 49.3828125 C-8.93532318 49.74438446 -9.86283386 50.10595642 -10.81845093 50.47848511 C-12.84817533 51.27038998 -14.87699494 52.06461682 -16.9050293 52.86083984 C-21.30938659 54.58999005 -25.7179899 56.30819348 -30.12628174 58.02728271 C-32.46957162 58.94128059 -34.81262487 59.85588536 -37.15545654 60.77105713 C-49.06042484 65.42035977 -60.98407627 70.0207806 -72.90985107 74.61639404 C-91.78161049 81.88937332 -110.64542166 89.18260405 -129.5 96.5 C-146.99316452 103.28858683 -164.49378479 110.05763815 -182 116.8125 C-183.76775787 117.49462051 -183.76775787 117.49462051 -185.57122803 118.19052124 C-197.2638301 122.70211146 -208.95702475 127.21216506 -220.65040207 131.72174549 C-225.7870308 133.70273559 -230.92350621 135.68412294 -236.05989456 137.6657362 C-240.24282433 139.27946436 -244.42606761 140.89237801 -248.609375 142.50512695 C-262.75614003 147.96142768 -276.88599093 153.45950909 -291 159 C-288.19268171 162.01830586 -285.45594438 164.08739939 -281.87109375 166.109375 C-280.85039795 166.69058105 -279.82970215 167.27178711 -278.77807617 167.87060547 C-277.67568604 168.49080566 -276.5732959 169.11100586 -275.4375 169.75 C-273.06583253 171.09827986 -270.6970326 172.45156592 -268.328125 173.8046875 C-267.71994431 174.15133453 -267.11176361 174.49798157 -266.4851532 174.85513306 C-260.17648621 178.45637673 -253.92928797 182.1592223 -247.6875 185.875 C-238.88174127 191.11163447 -230.05903752 196.31671737 -221.21435547 201.48721313 C-211.50391125 207.16393702 -201.82285616 212.88375188 -192.1875 218.6875 C-181.25597782 225.27072857 -170.24818461 231.71518803 -159.21630859 238.12841797 C-153.32642962 241.55576063 -147.44299305 244.99408146 -141.5625 248.4375 C-140.95109161 248.79548676 -140.33968323 249.15347351 -139.70974731 249.52230835 C-130.1314482 255.1337302 -120.60281082 260.82414162 -111.09301758 266.55102539 C-101.18966717 272.50628532 -91.20662946 278.32068184 -81.21630859 284.12841797 C-75.32642962 287.55576063 -69.44299305 290.99408146 -63.5625 294.4375 C-62.95109161 294.79548676 -62.33968323 295.15347351 -61.70974731 295.52230835 C-52.1314482 301.1337302 -42.60281082 306.82414162 -33.09301758 312.55102539 C-23.18966717 318.50628532 -13.20662946 324.32068184 -3.21630859 330.12841797 C2.67357246 333.55576184 8.55667234 336.99464973 14.4375 340.4375 C15.04259399 340.79149872 15.64768799 341.14549744 16.27111816 341.51022339 C22.94501631 345.4163328 29.602176 349.34766461 36.22265625 353.34375 C36.7992247 353.69147964 37.37579315 354.03920929 37.96983337 354.3974762 C40.69878642 356.04441025 43.42456539 357.69628491 46.14624023 359.35522461 C47.10860596 359.93796143 48.07097168 360.52069824 49.0625 361.12109375 C49.89910156 361.6308374 50.73570312 362.14058105 51.59765625 362.66577148 C54.00974756 364.00541366 56.43266237 364.99855494 59 366 C58.44908495 354.54144205 56.29429972 343.34623242 54.31323242 332.06860352 C53.92816678 329.85377229 53.54356658 327.63886009 53.15939331 325.4238739 C52.11587548 319.41518228 51.06586248 313.40764192 50.01469207 307.40028501 C48.90207982 301.03509418 47.7955345 294.6688487 46.68830872 288.30271912 C44.81781585 277.55286309 42.94365457 266.80365258 41.06665039 256.05493164 C39.16455071 245.1624384 37.26447932 234.269595 35.36743164 223.3762207 C35.25191396 222.71289256 35.13639629 222.04956443 35.01737808 221.36613543 C34.43622165 218.02892508 33.85511074 214.69170679 33.27402663 211.35448384 C30.32458754 194.41563752 27.37408628 177.47697726 24.41842651 160.53921509 C24.0916333 158.66645029 24.0916333 158.66645029 23.7582382 156.75585186 C23.43432519 154.89960841 23.43432519 154.89960841 23.10386848 153.0058651 C22.67389715 150.54183384 22.24392924 148.077802 21.81396484 145.61376953 C21.49958108 143.81210732 21.49958108 143.81210732 21.17884612 141.9740479 C18.60700399 127.23372418 16.04166634 112.49230202 13.48934448 97.74858534 C13.0439157 95.17575549 12.59821391 92.60297309 12.15241337 90.03020763 C11.87181146 88.41067785 11.5912146 86.7911472 11.31062317 85.1716156 C11.17673598 84.39885448 11.0428488 83.62609335 10.90490443 82.82991523 C10.14397917 78.43664469 9.3851228 74.0430234 8.62795591 69.64910364 C8.07960809 66.47011879 7.52845136 63.29162072 6.9777832 60.11303711 C6.78781832 59.0057041 6.59785343 57.89837109 6.40213203 56.75748253 C6.14311261 55.26653541 6.14311261 55.26653541 5.87886047 53.74546814 C5.73180821 52.89300979 5.58475595 52.04055143 5.43324757 51.16226101 C5.01268121 48.83190399 5.01268121 48.83190399 4 46 C1.09087364 46 -0.28877171 46.35823408 -2.93408203 47.39501953 Z M-371 57 C-377.81988445 68.78772359 -384.41010792 80.70306624 -391.01260376 92.61332703 C-393.25275804 96.65406854 -395.49637835 100.69286616 -397.7421875 104.73046875 C-404.52110322 116.91854175 -411.27806264 129.11838796 -418.00997925 141.3324585 C-423.4372637 151.17879604 -428.89048041 161.01046373 -434.35546875 170.8359375 C-438.92084233 179.04786733 -443.46482901 187.27137173 -448 195.5 C-453.76354617 205.95739601 -459.55145297 216.40092809 -465.35546875 226.8359375 C-469.92084265 235.04786791 -474.46473208 243.27142476 -479 251.5 C-484.17221873 260.88353178 -489.35827303 270.25916438 -494.5625 279.625 C-495.16578125 280.71288818 -495.7690625 281.80077637 -496.390625 282.92163086 C-499.31457334 288.19011507 -502.25008238 293.45141681 -505.21873474 298.69482422 C-506.64101431 301.20862993 -508.05744306 303.72570828 -509.47335815 306.24310303 C-510.1539495 307.44923528 -510.83745303 308.65372921 -511.5239563 309.85650635 C-512.47103911 311.51616231 -513.40767339 313.1817678 -514.34375 314.84765625 C-514.88193359 315.79648682 -515.42011719 316.74531738 -515.97460938 317.72290039 C-516.31298828 318.47434326 -516.65136719 319.22578613 -517 320 C-516.67 320.66 -516.34 321.32 -516 322 C-515.29875 321.35933594 -514.5975 320.71867187 -513.875 320.05859375 C-508.9637005 315.58103673 -504.03462683 311.13092801 -499.01953125 306.76953125 C-494.97334911 303.22423046 -490.99256813 299.60541001 -487 296 C-481.72014424 291.23213025 -476.42708194 286.48487782 -471.0625 281.8125 C-468.69035571 279.72788836 -466.34443935 277.61571356 -464 275.5 C-460.38323655 272.23609152 -456.73610392 269.01209051 -453.0625 265.8125 C-449.8248667 262.9673071 -446.6331371 260.07146164 -443.43359375 257.18359375 C-441.32488854 255.29151315 -439.20080199 253.42094242 -437.0625 251.5625 C-433.83440488 248.75177475 -430.66261557 245.884201 -427.5 243 C-423.71337002 239.54671847 -419.8952368 236.13900949 -416.02734375 232.77734375 C-413.66510827 230.70640513 -411.33204147 228.60487152 -409 226.5 C-406.01937279 223.81016569 -403.02754767 221.13689636 -400 218.5 C-395.28298716 214.38918961 -390.64361111 210.19332155 -386 206 C-380.72014424 201.23213025 -375.42708194 196.48487782 -370.0625 191.8125 C-367.69035571 189.72788836 -365.34443935 187.61571356 -363 185.5 C-360.01937279 182.81016569 -357.02754767 180.13689636 -354 177.5 C-350.16352736 174.15656802 -346.37780577 170.75932337 -342.60546875 167.34375 C-340.80742033 165.72631514 -338.99665716 164.12294236 -337.17578125 162.53125 C-336.27214844 161.7371875 -335.36851562 160.943125 -334.4375 160.125 C-333.61121094 159.40570313 -332.78492188 158.68640625 -331.93359375 157.9453125 C-329.77300858 156.05987468 -329.77300858 156.05987468 -329 153 C-329.6617801 150.67977537 -329.6617801 150.67977537 -330.81982422 148.15356445 C-331.246091 147.16040726 -331.67235779 146.16725006 -332.11154175 145.14399719 C-332.8258989 143.5200428 -332.8258989 143.5200428 -333.5546875 141.86328125 C-334.04341339 140.73137863 -334.53213928 139.59947601 -335.03567505 138.43327332 C-336.09083907 135.99277422 -337.14930308 133.55405548 -338.21386719 131.11767578 C-339.87575518 127.31419152 -341.52507287 123.50534841 -343.171875 119.6953125 C-344.83482518 115.8493654 -346.49846802 112.00372989 -348.16668701 108.1600647 C-353.16973853 96.63149686 -358.09673581 85.07131769 -363 73.5 C-363.72366986 71.79462438 -364.44746133 70.08930036 -365.17138672 68.3840332 C-366.78197568 64.58980047 -368.39141717 60.79508365 -370 57 C-370.33 57 -370.66 57 -371 57 Z M33 87 C34.47686022 100.2912531 36.70146475 113.41747334 39.00317383 126.58691406 C39.40946604 128.92799387 39.81542693 131.2691312 40.22108459 133.61032104 C41.31704011 139.92982836 42.41764397 146.24851797 43.51915193 152.56705952 C44.5604194 158.54203191 45.59752708 164.51772696 46.63506504 170.49334785 C48.69388752 182.35025595 50.75616229 194.20656086 52.82055664 206.0625 C54.81190841 217.49898559 56.8013333 228.93580381 58.78833008 240.37304688 C58.91043143 241.07586494 59.03253278 241.778683 59.15833417 242.50279859 C59.64952699 245.33014711 60.14071297 248.15749683 60.63188826 250.98484839 C62.77049597 263.29505414 64.91059517 275.60500067 67.05100319 287.91489351 C67.39331049 289.88360405 67.73559107 291.85231923 68.07787156 293.82103443 C70.88440297 309.96261613 73.69486218 326.10350085 76.51776934 342.24222755 C76.97186683 344.83911252 77.42532059 347.43610914 77.87865829 350.03312683 C78.59415483 354.12928298 79.31513601 358.22444566 80.0378418 362.31933594 C80.2313236 363.42804173 80.42480539 364.53674751 80.62415028 365.67905045 C80.79645507 366.64861553 80.96875986 367.61818062 81.14628601 368.61712646 C81.28938548 369.42894253 81.43248495 370.24075859 81.57992077 371.07717514 C81.9328435 373.07069187 81.9328435 373.07069187 83 375 C94.75269383 374.45455992 106.26036566 372.20069208 117.828125 370.18359375 C120.03050064 369.8034268 122.23295562 369.42371919 124.43548584 369.04444885 C130.1966599 368.05113139 135.9567436 367.05162785 141.71661377 366.05078125 C147.60860039 365.02812347 153.50160895 364.0113902 159.39453125 362.99414062 C170.93068869 361.00185284 182.46570163 359.00302074 194 357 C195.40791856 353.9421017 195.40791856 353.9421017 193.52807617 350.97583008 C192.79368002 349.73404298 192.04775546 348.49903112 191.29296875 347.26953125 C190.89717117 346.60725021 190.5013736 345.94496918 190.09358215 345.26261902 C188.80142728 343.10646543 187.49474946 340.95952937 186.1875 338.8125 C185.2928529 337.32663335 184.39897349 335.84030421 183.50585938 334.35351562 C178.67686025 326.33407609 173.76890999 318.36793584 168.7578125 310.4609375 C164.67312742 303.92480463 160.79704598 297.25947464 156.875 290.625 C151.00388308 280.69384869 145.07820347 270.80626064 139 261 C133.0118469 251.33571912 127.16351722 241.59721371 121.375 231.8125 C114.2658983 219.797067 107.07358768 207.83771486 99.78955078 195.92724609 C96.45720518 190.47638337 93.13216734 185.02109054 89.8125 179.5625 C89.46192535 178.9862085 89.11135071 178.40991699 88.75015259 177.81616211 C82.36237108 167.30873367 76.08500407 156.73742115 69.82269287 146.15487671 C65.2336582 138.40306718 60.60853467 130.6839308 55.79580688 123.06842041 C52.94584606 118.54324355 50.1697187 113.97985713 47.4375 109.3828125 C46.60824524 107.99359806 45.7788975 106.6044391 44.94946289 105.21533203 C43.28806594 102.42979638 41.63196349 99.64118925 39.97827148 96.85107422 C39.21349493 95.56731368 38.44860733 94.2836193 37.68359375 93 C37.32680542 92.39463409 36.97001709 91.78926819 36.60241699 91.16555786 C35.76261593 89.76012973 34.88535352 88.3771867 34 87 C33.67 87 33.34 87 33 87 Z M-305 177 C-305.13516604 253.04882756 -304.98765356 329.09485199 -304.61044246 405.1428749 C-304.57864803 411.55813031 -304.54771726 417.97338896 -304.51765925 424.38865274 C-304.25580893 480.26303397 -303.78639434 536.13043342 -303 592 C-300.04221486 590.83139604 -297.19922484 589.65369481 -294.41796875 588.109375 C-293.41080811 587.5512915 -293.41080811 587.5512915 -292.38330078 586.98193359 C-291.65868652 586.57539551 -290.93407227 586.16885742 -290.1875 585.75 C-289.40616699 585.31381348 -288.62483398 584.87762695 -287.81982422 584.42822266 C-280.35622355 580.24004651 -272.970182 575.9209478 -265.58618164 571.59448242 C-257.79444831 567.03318501 -249.9685705 562.53385459 -242.125 558.0625 C-233.02902133 552.87589208 -223.94287479 547.67318345 -214.875 542.4375 C-213.27591797 541.51420898 -213.27591797 541.51420898 -211.64453125 540.57226562 C-208.42942477 538.71529806 -205.21464622 536.85776421 -202 535 C-188.05155632 526.93910696 -174.08996112 518.90290574 -160.09527588 510.92263794 C-152.03736788 506.32605777 -144.00582214 501.6867584 -136 497 C-127.40477328 491.9681931 -118.7768787 486.99610928 -110.125 482.0625 C-101.02920013 476.87557574 -91.94287737 471.67318494 -82.875 466.4375 C-81.80894531 465.82197266 -80.74289062 465.20644531 -79.64453125 464.57226562 C-76.42942477 462.71529806 -73.21464622 460.85776421 -70 459 C-56.05155632 450.93910696 -42.08996112 442.90290574 -28.09527588 434.92263794 C-19.06326029 429.77038456 -10.06969897 424.55533549 -1.09741211 419.29980469 C6.15092871 415.06081159 13.43422933 410.8863512 20.73083496 406.73129272 C24.79989029 404.41250066 28.86412699 402.08528399 32.92822266 399.7578125 C34.84837485 398.65901296 36.76972905 397.5623082 38.69287109 396.46875 C40.88517338 395.21930186 43.06903484 393.95659727 45.25 392.6875 C46.38953125 392.03136719 47.5290625 391.37523437 48.703125 390.69921875 C49.46109375 390.13847656 50.2190625 389.57773437 51 389 C51 388.01 51 387.02 51 386 C50.34330322 385.62415771 49.68660645 385.24831543 49.01000977 384.86108398 C35.68139705 377.22411793 22.42127579 369.49666995 9.26660156 361.56274414 C1.15260923 356.67483536 -7.01369377 351.88268592 -15.20288086 347.12207031 C-22.61079376 342.81487646 -29.99390189 338.46756085 -37.36669922 334.10058594 C-42.55185282 331.03165249 -47.74401514 327.9750849 -52.9453125 324.93359375 C-53.54495819 324.58290833 -54.14460388 324.2322229 -54.76242065 323.87091064 C-55.67110397 323.3395047 -55.67110397 323.3395047 -56.59814453 322.79736328 C-67.03761017 316.69216925 -77.45280742 310.55262986 -87.8125 304.3125 C-98.74401796 297.72926438 -109.75181546 291.28481193 -120.78369141 284.87158203 C-126.67357038 281.44423937 -132.55700695 278.00591854 -138.4375 274.5625 C-139.04890839 274.20451324 -139.66031677 273.84652649 -140.29025269 273.47769165 C-149.8685518 267.8662698 -159.39718918 262.17585838 -168.90698242 256.44897461 C-178.81033283 250.49371468 -188.79337054 244.67931816 -198.78369141 238.87158203 C-204.67357038 235.44423937 -210.55700695 232.00591854 -216.4375 228.5625 C-217.35461258 228.02551987 -217.35461258 228.02551987 -218.29025269 227.47769165 C-227.8648663 221.86842894 -237.38989466 216.18030176 -246.89599609 210.45556641 C-256.84636671 204.47199423 -266.87389519 198.62495291 -276.91503906 192.79541016 C-280.21569787 190.87446644 -283.51068677 188.94405573 -286.8046875 187.01171875 C-287.91448975 186.36146729 -289.02429199 185.71121582 -290.16772461 185.04125977 C-292.3126863 183.78419979 -294.45676085 182.52562458 -296.59985352 181.26538086 C-297.55561279 180.7060083 -298.51137207 180.14663574 -299.49609375 179.5703125 C-300.34357178 179.07289551 -301.1910498 178.57547852 -302.06420898 178.06298828 C-303.7780158 176.91977854 -303.7780158 176.91977854 -305 177 Z M-330.4375 184.9375 C-331.51837891 185.89462891 -331.51837891 185.89462891 -332.62109375 186.87109375 C-335.94372184 189.84454581 -339.25643929 192.82887138 -342.56640625 195.81640625 C-344.67511146 197.70848685 -346.79919801 199.57905758 -348.9375 201.4375 C-352.16559512 204.24822525 -355.33738443 207.115799 -358.5 210 C-362.28662998 213.45328153 -366.1047632 216.86099051 -369.97265625 220.22265625 C-372.33489173 222.29359487 -374.66795853 224.39512848 -377 226.5 C-379.98062721 229.18983431 -382.97245233 231.86310364 -386 234.5 C-390.71701284 238.61081039 -395.35638889 242.80667845 -400 247 C-405.27985576 251.76786975 -410.57291806 256.51512218 -415.9375 261.1875 C-418.30964429 263.27211164 -420.65556065 265.38428644 -423 267.5 C-425.98062721 270.18983431 -428.97245233 272.86310364 -432 275.5 C-436.71701284 279.61081039 -441.35638889 283.80667845 -446 288 C-451.27985576 292.76786975 -456.57291806 297.51512218 -461.9375 302.1875 C-464.30964429 304.27211164 -466.65556065 306.38428644 -469 308.5 C-471.98062721 311.18983431 -474.97245233 313.86310364 -478 316.5 C-482.71701284 320.61081039 -487.35638889 324.80667845 -492 329 C-497.27985576 333.76786975 -502.57291806 338.51512218 -507.9375 343.1875 C-510.30964429 345.27211164 -512.65556065 347.38428644 -515 349.5 C-518.61267904 352.76022255 -522.25488991 355.98143565 -525.92578125 359.17578125 C-529.18551949 362.04263202 -532.39410784 364.96588484 -535.60546875 367.88671875 C-538.00988609 370.00872492 -540.48011097 372.01720988 -543 374 C-541.63205626 377.10572794 -540.11204915 379.08035376 -537.61328125 381.36328125 C-536.92935303 381.99564697 -536.2454248 382.6280127 -535.54077148 383.27954102 C-534.80544189 383.95041748 -534.0701123 384.62129395 -533.3125 385.3125 C-526.78104942 391.35431782 -520.39981897 397.50498818 -514.17504883 403.86254883 C-511.25402928 406.82610143 -508.28497988 409.65775902 -505.12890625 412.37109375 C-499.69618417 417.06123705 -494.7395559 422.213694 -489.7109375 427.328125 C-486.23359736 430.841314 -482.74997101 434.27725264 -479 437.5 C-473.60322543 442.13802012 -468.69645636 447.25752903 -463.7109375 452.328125 C-460.23359736 455.841314 -456.74997101 459.27725264 -453 462.5 C-447.60322543 467.13802012 -442.69645636 472.25752903 -437.7109375 477.328125 C-434.23359736 480.841314 -430.74997101 484.27725264 -427 487.5 C-421.60322543 492.13802012 -416.69645636 497.25752903 -411.7109375 502.328125 C-408.23359736 505.841314 -404.74997101 509.27725264 -401 512.5 C-395.60322543 517.13802012 -390.69645636 522.25752903 -385.7109375 527.328125 C-382.23359736 530.841314 -378.74997101 534.27725264 -375 537.5 C-369.60322543 542.13802012 -364.69645636 547.25752903 -359.7109375 552.328125 C-356.24039796 555.8344433 -352.76491786 559.26330478 -349.01953125 562.4765625 C-343.44290183 567.26679734 -338.3971378 572.59307598 -333.27148438 577.85546875 C-332.50513672 578.63277344 -331.73878906 579.41007812 -330.94921875 580.2109375 C-330.26174561 580.91524902 -329.57427246 581.61956055 -328.8659668 582.34521484 C-327.00001627 584.21824902 -327.00001627 584.21824902 -324 585 C-323.97215235 562.63948312 -324.04381279 540.28058669 -324.16908598 517.92045093 C-324.19426601 513.39064038 -324.21841673 508.86082431 -324.2427063 504.33100891 C-324.28470498 496.52365307 -324.32732414 488.71630082 -324.37039185 480.90895081 C-324.43265593 469.62149428 -324.49394211 458.3340326 -324.55500638 447.04656953 C-324.65415806 428.72358821 -324.75407658 410.40061115 -324.85449219 392.07763672 C-324.95190696 374.30192279 -325.04895135 356.5262069 -325.14550781 338.75048828 C-325.1514818 337.65072007 -325.15745579 336.55095187 -325.16361082 335.41785735 C-325.19358493 329.89942725 -325.22355187 324.38099711 -325.25351524 318.86256695 C-325.50123171 273.24170521 -325.75019894 227.62085037 -326 182 C-327.85128372 182 -329.11802867 183.7667015 -330.4375 184.9375 Z M176.29443359 380.54467773 C175.33437912 380.70888214 174.37432465 380.87308655 173.38517761 381.04226685 C170.22207946 381.58454879 167.0602674 382.13396943 163.8984375 382.68359375 C161.69705869 383.06273577 159.49561111 383.44147866 157.2940979 383.81983948 C152.68544397 384.61294034 148.07736897 385.40929578 143.46972656 386.20825195 C137.56113341 387.23275164 131.65158165 388.25158275 125.74164391 389.26829433 C120.10606491 390.23807156 114.47098823 391.2107525 108.8359375 392.18359375 C107.75947338 392.36916777 106.68300926 392.55474178 105.57392502 392.74593925 C102.53126159 393.27099489 99.48896495 393.79812304 96.44677734 394.32592773 C95.5448616 394.48129501 94.64294586 394.63666229 93.71369934 394.79673767 C92.88387039 394.94115295 92.05404144 395.08556824 91.19906616 395.23435974 C90.4804862 395.35880179 89.76190624 395.48324385 89.02155113 395.61145687 C86.99150829 396.00163211 85.00022661 396.47950098 83 397 C76.14419821 434.16850969 69.30412379 471.33988951 62.47739029 508.51374817 C61.10625035 515.97970736 59.73441453 523.44553765 58.36096191 530.91107178 C55.47262182 546.61122122 52.58789175 562.31201223 49.7164669 578.01526546 C48.48683876 584.73915061 47.25470924 591.46255561 46.01605225 598.18478394 C44.85302727 604.49661835 43.69755503 610.80980477 42.54734421 617.1239872 C42.1236343 619.44302863 41.69735167 621.76160164 41.26836014 624.07967186 C40.68567671 627.23044927 40.11215719 630.38275778 39.54101562 633.53564453 C39.36778715 634.46019408 39.19455868 635.38474363 39.01608086 636.33730984 C38.86563379 637.17862485 38.71518673 638.01993986 38.56018066 638.88674927 C38.42689613 639.61392717 38.2936116 640.34110508 38.15628815 641.09031868 C37.85602477 643.22233345 37.85602477 643.22233345 39 646 C39.3717334 645.33170166 39.7434668 644.66340332 40.12646484 643.97485352 C52.67222205 621.44081781 52.67222205 621.44081781 59.11230469 610.58154297 C68.62398062 594.53201773 77.83437034 578.3038343 87.07598877 562.0977478 C92.23324443 553.05692659 97.4549611 544.05556088 102.71337891 535.07324219 C107.16916344 527.45094222 111.56397146 519.79468689 115.9375 512.125 C122.96603507 499.79974804 130.04240434 487.50277933 137.14111328 475.21777344 C140.26324605 469.81329355 143.38141204 464.40652588 146.5 459 C147.74998122 456.8333225 148.99998121 454.66665583 150.25 452.5 C150.86875 451.4275 151.4875 450.355 152.125 449.25 C157.75 439.5 157.75 439.5 159.62670898 436.24707031 C160.87104998 434.09019097 162.11535364 431.93329008 163.35961914 429.77636719 C166.57088902 424.2097733 169.78288013 418.64359712 172.99609375 413.078125 C176.12959221 407.65039617 179.26107913 402.22151268 182.390625 396.79150391 C183.40296318 395.03557631 184.4158973 393.27999201 185.4296875 391.52490234 C186.60096113 389.49691304 187.76973124 387.46750876 188.9375 385.4375 C189.84822266 383.85775391 189.84822266 383.85775391 190.77734375 382.24609375 C192.0796838 380.27983406 192.0796838 380.27983406 192 379 C186.60326977 378.78231277 181.5849593 379.61727582 176.29443359 380.54467773 Z M53.19921875 411.71875 C52.1736084 412.31308838 51.14799805 412.90742676 50.09130859 413.51977539 C48.96805176 414.17324951 47.84479492 414.82672363 46.6875 415.5 C44.29885266 416.8852818 41.90922732 418.26887203 39.51953125 419.65234375 C38.90086182 420.01073837 38.28219238 420.369133 37.64477539 420.73838806 C31.65439039 424.20604459 25.64302583 427.63644888 19.62905884 431.06298828 C10.39096983 436.32710943 1.17601583 441.62818826 -8 447 C-16.59522672 452.0318069 -25.2231213 457.00389072 -33.875 461.9375 C-42.97079987 467.12442426 -52.05712263 472.32681506 -61.125 477.5625 C-62.19105469 478.17802734 -63.25710938 478.79355469 -64.35546875 479.42773438 C-67.57057523 481.28470194 -70.78535378 483.14223579 -74 485 C-87.90428579 493.03537392 -101.8203498 501.04902998 -115.76794434 509.00897217 C-127.46067617 515.68285605 -139.12511332 522.40522282 -150.78222656 529.14111328 C-157.27125096 532.88978034 -163.7633695 536.63308667 -170.25488281 540.37744141 C-175.64748314 543.48818339 -181.03937822 546.60013327 -186.4296875 549.71484375 C-198.23629484 556.53502637 -210.06027 563.3232326 -221.90472412 570.07736206 C-230.92561403 575.22326887 -239.9077589 580.43245742 -248.86962891 585.68041992 C-261.19045041 592.88426768 -273.59728072 599.93841607 -286 607 C-282.7683897 609.15440687 -280.1409945 609.96840686 -276.4152832 611.04589844 C-275.40350478 611.34081916 -275.40350478 611.34081916 -274.37128639 611.64169788 C-272.09919973 612.30257837 -269.82501983 612.95594144 -267.55078125 613.609375 C-265.91357414 614.08386602 -264.27649764 614.55880788 -262.63954163 615.03416443 C-258.14635352 616.33747111 -253.65128688 617.63418948 -249.15587616 618.92980576 C-244.35560944 620.31448049 -239.55707585 621.70513721 -234.75830078 623.0949707 C-223.26098621 626.42339434 -211.76081873 629.7419008 -200.26033783 633.05936432 C-194.82586357 634.62725718 -189.39170336 636.19623763 -183.95751953 637.76513672 C-166.35382127 642.84714983 -148.74959186 647.92731576 -131.14355469 653.0012207 C-110.88809083 658.8388076 -90.63367661 664.67984288 -70.38671875 670.546875 C-69.50525932 670.80226358 -68.6237999 671.05765217 -67.71562958 671.3207798 C-59.52786143 673.69309703 -51.34033871 676.0662535 -43.15383816 678.44294167 C-40.24780386 679.2863919 -37.34150749 680.1289366 -34.43515968 680.97130585 C-32.54488286 681.51952058 -30.65495797 682.06894841 -28.76506042 682.61846924 C-16.53366119 686.16278072 -4.26594448 689.5775506 8 693 C19.92804596 628.38771323 31.80682982 563.76633167 43.58830452 499.12714577 C43.90583238 497.38503614 44.22336205 495.64292684 44.54089355 493.90081787 C44.77578643 492.61207994 44.77578643 492.61207994 45.01542461 491.2973069 C46.12286211 485.22261983 47.23263178 479.14836159 48.34338379 473.07427979 C49.70506681 465.62776247 51.06362497 458.18068341 52.41814405 450.73285949 C53.11485821 446.90239898 53.81298049 443.0722091 54.51483727 439.24268723 C55.1606778 435.71848443 55.80241418 432.1935598 56.44089365 428.6680162 C56.78389238 426.78006834 57.13123868 424.89291195 57.47872543 423.00578499 C57.68103397 421.88404318 57.88334251 420.76230137 58.09178162 419.60656738 C58.26839042 418.63787971 58.44499922 417.66919205 58.6269598 416.67115021 C58.98964924 414.07411652 59.06913709 411.61816075 59 409 C56.94866407 409 54.89968705 410.73020061 53.19921875 411.71875 Z M-511 437 C-509.36836812 443.01601693 -506.27990982 448.08164804 -503.1875 453.4375 C-502.00376602 455.50903446 -500.82017625 457.58065133 -499.63671875 459.65234375 C-499.03134277 460.7079248 -498.4259668 461.76350586 -497.80224609 462.85107422 C-495.01419905 467.72241408 -492.25776028 472.61147252 -489.5 477.5 C-488.41555273 479.41937715 -487.3309168 481.33864772 -486.24609375 483.2578125 C-485.70968262 484.20688477 -485.17327148 485.15595703 -484.62060547 486.13378906 C-483.00965985 488.98291555 -481.39755972 491.83138584 -479.78515625 494.6796875 C-474.14412032 504.64754259 -468.5253164 514.62720252 -462.9375 524.625 C-458.18393512 533.12904202 -453.38339577 541.60399747 -448.53442383 550.05395508 C-444.68131386 556.77925624 -440.89821109 563.54211722 -437.125 570.3125 C-432.47008294 578.66192824 -427.71955243 586.9467458 -422.875 595.1875 C-417.91112766 603.63728794 -413.12656416 612.16376312 -408.46606445 620.78417969 C-403.33056478 630.27426323 -398.01047552 639.65664584 -392.68066406 649.03857422 C-389.75833141 654.18789077 -386.84886773 659.3444788 -383.9375 664.5 C-380.63845728 670.34111501 -377.33431752 676.17893728 -374 682 C-370.26072404 678.61240879 -367.78162919 674.80285026 -365.12109375 670.5703125 C-364.14273684 669.03616323 -363.16335955 667.50266432 -362.18310547 665.96972656 C-361.40830841 664.75573181 -361.40830841 664.75573181 -360.61785889 663.51721191 C-357.8376372 659.19149031 -354.9976829 654.90544731 -352.16015625 650.6171875 C-350.98369605 648.83595593 -349.80726393 647.05470582 -348.63085938 645.2734375 C-346.83254715 642.55212182 -345.03355089 639.83126532 -343.2331543 637.11132812 C-341.45689227 634.42705066 -339.68333448 631.74100272 -337.91015625 629.0546875 C-337.37471695 628.24732147 -336.83927765 627.43995544 -336.28761292 626.60812378 C-333.35148241 622.15552511 -330.5910726 617.66230131 -328 613 C-332.37114214 607.7086174 -337.0959813 602.79453224 -341.9375 597.9375 C-342.51000488 597.3604834 -343.08250977 596.7834668 -343.67236328 596.18896484 C-346.65202022 593.21939989 -349.68889803 590.37188683 -352.87890625 587.62890625 C-358.30588843 582.93581271 -363.26209008 577.78463194 -368.2890625 572.671875 C-371.75612387 569.16907073 -375.22804602 565.74236279 -378.96875 562.53125 C-384.60544631 557.68703971 -389.72387138 552.32068928 -394.93359375 547.02734375 C-398.52936227 543.39660828 -402.12146956 539.82942643 -406 536.5 C-411.62812757 531.66867614 -416.73436598 526.31002622 -421.93359375 521.02734375 C-426.1546141 516.7652762 -430.43968391 512.69341441 -434.99023438 508.78710938 C-439.6434185 504.64943836 -443.92548362 500.10991768 -448.2890625 495.671875 C-451.75612387 492.16907073 -455.22804602 488.74236279 -458.96875 485.53125 C-464.60544631 480.68703971 -469.72387138 475.32068928 -474.93359375 470.02734375 C-478.53284084 466.39309588 -482.12847312 462.82371781 -486.01171875 459.4921875 C-491.57973311 454.71483951 -496.61332713 449.39617991 -501.72851562 444.14453125 C-502.49486328 443.36722656 -503.26121094 442.58992188 -504.05078125 441.7890625 C-504.73825439 441.08475098 -505.42572754 440.38043945 -506.1340332 439.65478516 C-507.99998373 437.78175098 -507.99998373 437.78175098 -511 437 Z M-311 626 C-312.58322127 627.81845781 -312.58322127 627.81845781 -313.95751953 630.02807617 C-314.5055423 630.86042282 -315.05356506 631.69276947 -315.61819458 632.55033875 C-316.20051849 633.45540665 -316.78284241 634.36047455 -317.3828125 635.29296875 C-317.99712128 636.23118973 -318.61143005 637.16941071 -319.24435425 638.13606262 C-321.21342811 641.14753509 -323.16944875 644.16723298 -325.125 647.1875 C-326.41839464 649.17179535 -327.71265655 651.15552569 -329.0078125 653.13867188 C-330.90758685 656.04834602 -332.80618523 658.95873471 -334.70001221 661.87228394 C-338.69745189 668.02152163 -342.73108346 674.14410099 -346.85012817 680.21269226 C-348.71893432 682.98589305 -350.48041552 685.78975009 -352.12844849 688.69767761 C-352.74606049 689.787444 -353.36367249 690.87721039 -354 692 C-329.5410407 693.20891311 -305.06534859 693.30249045 -280.58237028 693.50525212 C-274.53313181 693.55608118 -268.48393042 693.61102336 -262.4347229 693.66539001 C-252.26965422 693.75615254 -242.10456385 693.84401386 -231.93945312 693.92993164 C-220.30456792 694.02829223 -208.66972201 694.13051883 -197.03489053 694.23503023 C-184.50091987 694.3475817 -171.96692559 694.45731082 -159.43292284 694.56622386 C-155.89139888 694.5971716 -152.3498796 694.62861271 -148.80836105 694.66017342 C-120.20483656 694.91397032 -91.6046844 695.06209848 -63 695 C-65.8604982 693.0930012 -67.82260993 692.33786298 -71.08203125 691.40966797 C-72.13870499 691.10589737 -73.19537872 690.80212677 -74.28407288 690.489151 C-75.44845383 690.16015305 -76.61283478 689.83115509 -77.8125 689.4921875 C-79.70832201 688.94934612 -81.6041435 688.40650291 -83.49994755 687.86359882 C-85.55880964 687.2750777 -87.61839249 686.68914315 -89.67819214 686.10391235 C-94.08268526 684.85233242 -98.48501864 683.59327495 -102.88696289 682.33276367 C-104.42426834 681.8926159 -105.96157611 681.45247622 -107.49888611 681.01234436 C-108.27340559 680.79059099 -109.04792507 680.56883762 -109.84591484 680.34036446 C-112.25455527 679.65102695 -114.66339294 678.96238258 -117.07228088 678.27391052 C-133.81448982 673.48791143 -150.54174689 668.65053192 -167.2678833 663.80871582 C-172.45481664 662.30730407 -177.64217068 660.80734942 -182.82958984 659.30761719 C-199.40094974 654.51627259 -215.97080628 649.71980486 -232.53767395 644.91294861 C-239.28081306 642.95650082 -246.0244821 641.00188255 -252.76827908 639.04770374 C-258.27248392 637.45254367 -263.77596643 635.85492236 -269.27891636 634.2554388 C-272.6813061 633.26713434 -276.08436912 632.28116447 -279.4876194 631.29582787 C-281.0596946 630.84014963 -282.63149074 630.38350731 -284.20297813 629.92580605 C-288.79445175 628.58881569 -293.39144916 627.27698754 -298 626 C-298.94131775 625.73676941 -299.8826355 625.47353882 -300.85247803 625.20233154 C-305.03539645 624.13274186 -307.35206982 623.59076717 -311 626 Z " fill="#000000" transform="translate(585,0)"/>
<path d="M0 0 C52.8 0 105.6 0 160 0 C160 214.83 160 429.66 160 651 C107.2 651 54.4 651 0 651 C0 436.17 0 221.34 0 0 Z " fill="#322B2A" transform="translate(1783,58)"/>
</svg>
